<svg width="814" height="104" viewBox="0 0 814 104" fill="none" xmlns="http://www.w3.org/2000/svg">
<path d="M10.3955 100.281V14.1594H25.4511V100.281H10.3955ZM17.9233 101.625V92.6637H62.8213L65.946 101.625H17.9233ZM65.946 101.625L51.7088 96.8757L57.446 72.4999H65.946C65.946 82.6255 65.946 90.6255 65.946 101.625ZM39.0729 12.9048L38.6248 18.6403C36.5935 19.2975 34.2635 19.9248 31.6347 20.5222C29.0657 21.1197 26.4071 21.5976 23.6588 21.9561L25.4511 15.4141V27.9604H10.3955V15.4141L11.919 21.4184L0 18.8195L0.448084 12.9048H39.0729ZM0.358467 101.625L0.806551 95.8899C3.91326 94.6352 7.70704 93.4702 12.1879 92.3948L10.3955 99.1161V86.5697H25.4511V99.1161L23.9277 93.1118L35.8467 95.7106L35.3986 101.625H0.358467Z" fill="black"/>
<path d="M113.544 103.059C102.731 103.059 94.3963 100.132 88.5413 94.2768C82.6864 88.4218 79.7589 80.0576 79.7589 69.1841C79.7589 58.1314 82.6266 49.3788 88.3621 42.9264C94.0976 36.4143 101.834 33.1582 111.573 33.1582C120.296 33.1582 127.017 35.9064 131.737 41.4029C136.456 46.8397 138.816 54.6662 138.816 64.8825C138.816 65.7787 138.786 66.6748 138.727 67.571C138.667 68.4672 138.577 69.3335 138.458 70.1699L123.402 67.3022C123.402 58.1612 122.297 51.5595 120.086 47.4969C117.936 43.4342 114.411 41.4029 109.512 41.4029C99.9525 41.4029 95.173 48.9606 95.173 64.076C95.173 83.1344 102.79 92.6637 118.025 92.6637C124 92.6637 130.243 91.4389 136.755 88.9894L136.128 97.4134C133.32 99.2057 129.944 100.61 126.001 101.625C122.118 102.581 117.965 103.059 113.544 103.059ZM85.584 70.1699V62.8213H137.024L138.458 70.1699H85.584Z" fill="black"/>
<path d="M186.044 91.9467C186.044 86.988 186.104 81.9395 186.224 76.8015C186.343 71.6037 186.403 66.7346 186.403 62.194V54.3077C186.403 45.824 182.28 41.5822 174.036 41.5822C168.599 41.5822 163.58 43.3147 158.98 46.7799L153.245 54.0389C153.065 48.9009 153.364 44.2109 154.141 39.9691C162.147 35.4882 170.6 33.2478 179.502 33.2478C193.542 33.2478 200.562 39.9392 200.562 53.3219C200.562 54.9948 200.532 57.5041 200.473 60.8498C200.413 64.1357 200.353 67.6905 200.293 71.5141C200.234 75.278 200.174 78.8328 200.114 82.1785C200.054 85.4645 200.025 88.0036 200.025 89.7959L186.044 91.9467ZM153.245 54.0389L154.499 43.8226L168.211 38.6248L160.862 54.0389H153.245ZM167.673 102.97C161.997 102.97 157.486 101.356 154.141 98.1303C150.795 94.8443 149.122 90.4531 149.122 84.9566C149.122 73.0675 157.755 65.3007 175.021 61.6563L189.629 58.6093L190.525 66.3164L177.71 67.9295C172.811 68.5269 169.256 69.8712 167.046 71.9622C164.835 73.9935 163.73 77.0405 163.73 81.1031C163.73 88.9894 167.135 92.9325 173.946 92.9325C178.726 92.9325 184.282 90.6921 190.615 86.2113L192.228 89.4375C184.999 98.4589 176.814 102.97 167.673 102.97ZM189.629 101.894L186.582 90.244L200.025 86.3905V96.1587L198.053 92.5741L208.986 95.7106L208.538 100.908C203.639 101.685 197.336 102.014 189.629 101.894Z" fill="black"/>
<path d="M227.806 101.088V43.733L242.144 48.3034V101.088H227.806ZM218.665 101.625L219.113 96.2484C220.845 95.4119 222.578 94.7249 224.311 94.1872C226.043 93.6495 227.776 93.1715 229.508 92.7533L227.806 99.2953V87.1074H242.144V99.2953L240.71 93.5598L255.228 96.0691L254.78 101.625H218.665ZM239.277 56.817L237.484 53.2323C240.651 46.3617 244.026 41.4328 247.611 38.4456C251.196 35.3986 255.348 33.8751 260.068 33.8751C260.844 33.8751 261.651 33.905 262.487 33.9647C263.384 34.0245 264.16 34.1738 264.817 34.4128L263.832 46.7799C262.876 46.6604 261.83 46.5708 260.695 46.5111C259.56 46.3916 258.544 46.3318 257.648 46.3318C253.645 46.3318 250.18 47.1683 247.253 48.8411C244.385 50.4542 241.726 53.1128 239.277 56.817ZM227.806 56.0104V44.5395L229.956 48.4826L217.589 42.5679L217.948 38.804C220.577 37.6091 223.624 36.5935 227.089 35.7571C230.554 34.9206 234.258 34.3232 238.201 33.9647L241.607 48.2138L227.806 56.0104Z" fill="black"/>
<path d="M322.082 101.088V55.9208C322.082 47.7358 318.139 43.6433 310.253 43.6433C304.04 43.6433 297.766 46.1526 291.434 51.1711L289.641 46.6903C293.286 42.3887 297.468 39.0729 302.188 36.7429C306.907 34.4128 311.866 33.2478 317.064 33.2478C323.277 33.2478 328.057 34.9804 331.403 38.4456C334.748 41.851 336.421 46.7501 336.421 53.1427V101.088H322.082ZM281.576 101.088V41.2237L295.914 44.9876V101.088H281.576ZM272.435 101.625L272.883 96.2484C274.615 95.4119 276.348 94.7249 278.081 94.1872C279.813 93.6495 281.546 93.1715 283.278 92.7533L281.576 99.3849V87.1074H295.914V99.3849L294.481 93.4702L305.414 96.0691L304.966 101.625H272.435ZM314.555 101.625L315.003 95.8899C316.257 95.2327 317.602 94.6651 319.036 94.1872C320.469 93.6495 322.053 93.1715 323.785 92.7533L322.082 99.3849V87.1074H336.421V99.3849L334.987 93.4702L345.921 96.0691L345.472 101.625H314.555ZM281.576 56.0104V44.5395L283.727 48.4826L271.359 42.5679L271.718 38.804C274.347 37.6091 277.394 36.5935 280.859 35.7571C284.324 34.9206 288.028 34.3232 291.971 33.9647L295.377 48.2138L281.576 56.0104Z" fill="black"/>
<path d="M389.026 103.059C378.212 103.059 369.878 100.132 364.023 94.2768C358.168 88.4218 355.241 80.0576 355.241 69.1841C355.241 58.1314 358.108 49.3788 363.844 42.9264C369.579 36.4143 377.316 33.1582 387.055 33.1582C395.777 33.1582 402.499 35.9064 407.218 41.4029C411.938 46.8397 414.298 54.6662 414.298 64.8825C414.298 65.7787 414.268 66.6748 414.208 67.571C414.149 68.4672 414.059 69.3335 413.94 70.1699L398.884 67.3022C398.884 58.1612 397.779 51.5595 395.568 47.4969C393.417 43.4342 389.892 41.4029 384.993 41.4029C375.434 41.4029 370.655 48.9606 370.655 64.076C370.655 83.1344 378.272 92.6637 393.507 92.6637C399.481 92.6637 405.725 91.4389 412.237 88.9894L411.61 97.4134C408.802 99.2057 405.426 100.61 401.483 101.625C397.6 102.581 393.447 103.059 389.026 103.059ZM361.066 70.1699V62.8213H412.506L413.94 70.1699H361.066Z" fill="black"/>
<path d="M434.103 101.088V43.733L448.442 48.3034V101.088H434.103ZM424.962 101.625L425.411 96.2484C427.143 95.4119 428.876 94.7249 430.608 94.1872C432.341 93.6495 434.074 93.1715 435.806 92.7533L434.103 99.2953V87.1074H448.442V99.2953L447.008 93.5598L461.526 96.0691L461.078 101.625H424.962ZM445.574 56.817L443.782 53.2323C446.948 46.3617 450.324 41.4328 453.909 38.4456C457.493 35.3986 461.646 33.8751 466.365 33.8751C467.142 33.8751 467.949 33.905 468.785 33.9647C469.681 34.0245 470.458 34.1738 471.115 34.4128L470.129 46.7799C469.173 46.6604 468.128 46.5708 466.993 46.5111C465.858 46.3916 464.842 46.3318 463.946 46.3318C459.943 46.3318 456.478 47.1683 453.55 48.8411C450.682 50.4542 448.024 53.1128 445.574 56.817ZM434.103 56.0104V44.5395L436.254 48.4826L423.887 42.5679L424.246 38.804C426.874 37.6091 429.921 36.5935 433.386 35.7571C436.852 34.9206 440.556 34.3232 444.499 33.9647L447.904 48.2138L434.103 56.0104Z" fill="black"/>
<path d="M500.689 103.059C492.384 103.059 485.484 101.147 479.987 97.3237C479.509 95.1132 479.151 92.5741 478.912 89.7063C478.673 86.7789 478.643 83.7916 478.822 80.7447H485.812L493.161 96.1587L487.336 90.7817C491.876 93.7092 496.805 95.1729 502.122 95.1729C509.83 95.1729 513.683 92.0961 513.683 85.9424C513.683 81.4018 510.576 78.1159 504.363 76.0846L497.014 73.7546C485.424 70.1101 479.629 63.4785 479.629 53.8596C479.629 47.5865 481.839 42.5978 486.26 38.8937C490.681 35.1895 496.596 33.3374 504.004 33.3374C510.696 33.3374 516.7 34.7115 522.017 37.4598C523.033 42.0004 523.451 46.989 523.272 52.4258H515.923L508.575 37.0117L517.357 45.4357C512.219 42.6277 507.29 41.2237 502.571 41.2237C495.999 41.2237 492.713 44.0616 492.713 49.7373C492.713 54.3376 496.029 57.7132 502.66 59.864L510.009 62.194C515.804 64.0461 520.106 66.5852 522.914 69.8114C525.722 73.0376 527.126 77.0405 527.126 81.8201C527.126 88.3322 524.736 93.5001 519.956 97.3237C515.177 101.147 508.754 103.059 500.689 103.059Z" fill="black"/>
<path d="M680.191 103.238C670.273 103.238 662.387 100.102 656.532 93.8287C650.677 87.4958 647.75 79.0121 647.75 68.3775C647.75 57.6235 650.707 49.0801 656.622 42.7472C662.536 36.3545 670.482 33.1582 680.46 33.1582C690.377 33.1582 698.234 36.3246 704.029 42.6576C709.884 48.9307 712.811 57.4144 712.811 68.1087C712.811 78.8627 709.854 87.4062 703.939 93.7391C698.084 100.072 690.168 103.238 680.191 103.238ZM681.714 94.8145C691.931 94.8145 697.039 86.7191 697.039 70.5284C697.039 61.2082 695.456 54.0688 692.289 49.11C689.182 44.0914 684.702 41.5822 678.847 41.5822C668.63 41.5822 663.522 49.6775 663.522 65.8683C663.522 75.1884 665.105 82.3578 668.272 87.3763C671.438 92.3351 675.919 94.8145 681.714 94.8145Z" fill="black"/>
<path d="M732.885 101.088V33.3374C732.885 26.5265 734.021 20.6417 736.291 15.6829C738.561 10.6644 741.787 6.81087 745.97 4.12237C750.152 1.37412 755.081 0 760.756 0C764.222 0 767.149 0.477953 769.539 1.43386L768.643 12.0086C765.177 11.1722 761.951 10.754 758.964 10.754C754.543 10.754 751.436 12.0385 749.644 14.6075C747.852 17.1168 746.955 21.5678 746.955 27.9604V37.9975L747.135 39.7898V101.088H732.885ZM721.504 43.3745L722.132 36.2052C725.597 35.3687 729.42 34.8908 733.602 34.7713H765.506L764.789 43.3745H721.504ZM723.745 101.625L724.193 96.2484C725.925 95.4119 727.658 94.7249 729.39 94.1872C731.123 93.6495 732.856 93.1715 734.588 92.7533L732.885 99.2953V87.1074H747.135V99.2953L745.611 93.5598L761.115 96.0691L760.667 101.625H723.745Z" fill="black"/>
<path d="M798.037 102.701C785.968 102.701 779.934 96.5769 779.934 84.3293V41.1341L780.741 34.7713L784.057 17.7441H794.273V81.6408C794.273 85.584 794.99 88.4517 796.424 90.244C797.917 91.9766 800.307 92.8429 803.593 92.8429C806.282 92.8429 809.717 92.3351 813.899 91.3194L813.361 99.0265C808.94 101.476 803.832 102.701 798.037 102.701ZM768.643 43.3745L769.27 36.2052C772.735 35.3687 776.559 34.8908 780.741 34.7713H813.541L812.824 43.3745H768.643Z" fill="black"/>
<path d="M580.896 101.356V15.2348H595.951V101.356H580.896ZM588.423 102.701V93.7391H633.321L636.446 102.701H588.423ZM636.446 102.701L622.209 97.9511L627.946 73.5753H636.446C636.446 83.7009 636.446 91.7009 636.446 102.701ZM609.573 13.9802L609.125 19.7157C607.094 20.3729 604.763 21.0002 602.135 21.5976C599.566 22.1951 596.907 22.673 594.159 23.0315L595.951 16.4895V29.0358H580.896V16.4895L582.419 22.4938L570.5 19.8949L570.948 13.9802H609.573ZM570.858 102.701L571.307 96.9653C574.413 95.7106 578.207 94.5456 582.688 93.4702L580.896 100.191V87.6451H595.951V100.191L594.428 94.1871L606.347 96.786L605.899 102.701H570.858Z" fill="black"/>
</svg>
